<svg
  xmlns="http://www.w3.org/2000/svg"
  viewBox="-0.020193934440612793 -0.0121840238571167 84.88448333740234 67.32736206054688"
  style="width: 100%; height: 100%"
>
  <path
    d="M66.11 67.29c-5.49 0-11-.06-16.46 0-1.58 0-2.26-.61-3-1.91-1.86-3.09-1.75-5.66.27-8.82 5.22-8.2 10-16.66 15-25 1.35-2.28 1.35-2.27 2.7 0l19.29 33.2c1.45 2.49 1.43 2.52-1.34 2.53zM7.73 67.26c-2 0-4-.07-6 0-1.83.08-2.21-.34-1.21-2 5.06-8.6 10-17.26 15-25.89 3.73-6.45 7.48-12.82 11.13-19.25.9-1.58 1.43-1.82 2.38-.05 2 3.66 4 7.29 6.15 10.85a3.3 3.3 0 0 1-.1 3.87Q25.9 50.08 16.87 65.45a3.07 3.07 0 0 1-3.15 1.84c-1.99-.14-3.99-.03-5.99-.03z"
    fill="#00adb5"
  ></path>
  <path
    d="M48.43 46.71c-3-5.29-5.72-10-8.42-14.78-2.95-5.21-5.83-10.45-8.84-15.61a3.51 3.51 0 0 1 .06-4.12c2.26-3.67 4.39-7.43 6.53-11.2.69-1.21 1.16-1.46 2-.06q8.48 14.69 17 29.31a2 2 0 0 1 .13 2.3c-2.76 4.55-5.45 9.11-8.46 14.16z"
    fill="#393e46"
  ></path>
  <path
    d="M20.15 67.26l10.68-18C33 45.58 35.18 42 37.32 38.3c.7-1.19 1.21-1.44 2 0q3 5.46 6.11 10.84a2.51 2.51 0 0 1-.11 3c-1.16 1.82-2.08 3.8-3.35 5.53a5.17 5.17 0 0 0-.36 6.12c2.1 4 1.77 3.5-2.22 3.51-6.24-.03-12.46-.04-19.24-.04z"
    fill="#d3d4d8"
  ></path>
</svg>
